<?xml version="1.0" encoding="UTF-8" standalone="no"?>
<!-- Created with Inkscape (http://www.inkscape.org/) -->

<svg
   xmlns:dc="http://purl.org/dc/elements/1.1/"
   xmlns:cc="http://creativecommons.org/ns#"
   xmlns:rdf="http://www.w3.org/1999/02/22-rdf-syntax-ns#"
   xmlns:svg="http://www.w3.org/2000/svg"
   xmlns="http://www.w3.org/2000/svg"
   xmlns:sodipodi="http://sodipodi.sourceforge.net/DTD/sodipodi-0.dtd"
   xmlns:inkscape="http://www.inkscape.org/namespaces/inkscape"
   width="744.09448819"
   height="1052.3622047"
   id="svg2"
   version="1.1"
   inkscape:version="0.48.4 r9939"
   sodipodi:docname="mooncake.svg">
  <defs
     id="defs4" />
  <sodipodi:namedview
     id="base"
     pagecolor="#ffffff"
     bordercolor="#666666"
     borderopacity="1.0"
     inkscape:pageopacity="0.0"
     inkscape:pageshadow="2"
     inkscape:zoom="0.49497475"
     inkscape:cx="1181.601"
     inkscape:cy="715.3917"
     inkscape:document-units="px"
     inkscape:current-layer="layer1"
     showgrid="false"
     inkscape:window-width="1920"
     inkscape:window-height="1025"
     inkscape:window-x="0"
     inkscape:window-y="27"
     inkscape:window-maximized="1" />
  <metadata
     id="metadata7">
    <rdf:RDF>
      <cc:Work
         rdf:about="">
        <dc:format>image/svg+xml</dc:format>
        <dc:type
           rdf:resource="http://purl.org/dc/dcmitype/StillImage" />
      </cc:Work>
    </rdf:RDF>
  </metadata>
  <g
     inkscape:label="Layer 1"
     inkscape:groupmode="layer"
     id="layer1">
    <g
       style="font-size:356.97808838px;font-style:normal;font-variant:normal;font-weight:bold;font-stretch:normal;text-align:start;line-height:100%;letter-spacing:0px;word-spacing:0px;writing-mode:lr-tb;text-anchor:start;fill:#000000;fill-opacity:1;stroke:none;font-family:'文泉驿微米黑';-inkscape-font-specification:'文泉驿微米黑 Bold'"
       id="text2985">
      <path
         d="m 304.41302,132.04604 0,273.31135 c -2.9e-4,13.01482 -2.78918,22.77593 -8.36667,29.28336 -5.57806,6.50739 -13.94473,9.76109 -25.10002,9.76112 -13.94471,-3e-5 -31.60767,-1.39448 -52.98894,-4.18334 l -6.97223,-27.88891 c 22.31091,2.78889 40.43869,4.18333 54.38338,4.18334 7.43679,-1e-5 11.1553,-6.50741 11.15557,-19.52224 l 0,-62.75006 -172.91126,0 c -8.366761,40.90378 -24.635277,78.08896 -48.8056,111.55566 L 28.312783,430.45741 C 47.834984,400.70925 61.547019,373.75 69.448929,349.57957 77.350721,325.40926 81.301646,297.52038 81.301718,265.91283 l 0,-133.86679 223.111302,0 m -195.22239,87.85008 167.33348,0 0,-61.35561 -167.33348,0 0,61.35561 m -1.39444,87.85008 168.72792,0 0,-61.35561 -167.33348,0 0,27.88891 c -1e-4,11.15569 -0.46491,22.31125 -1.39444,33.4667"
         style="line-height:100%;font-family:'文泉驿微米黑';-inkscape-font-specification:'文泉驿微米黑 Bold'"
         id="path3089" />
      <path
         d="m 415.96868,139.01827 267.73356,0 0,26.49447 -54.38338,0 0,97.61119 75.30007,0 0,26.49447 -75.30007,0 0,154.78347 -27.88891,0 0,-154.78347 -100.40009,0 c -9.29643,72.51123 -39.04457,125.03529 -89.24452,157.57236 l -20.91669,-20.91668 c 46.48146,-29.74816 73.90553,-75.30001 82.2723,-136.65568 l -85.06119,0 0,-26.49447 87.85008,0 c 0.92952,-10.22577 1.39433,-20.91651 1.39444,-32.07225 l 0,-65.53894 -61.3556,0 0,-26.49447 m 89.24452,26.49447 0,68.32784 c -1.4e-4,10.2261 -0.46496,19.98721 -1.39445,29.28335 l 97.6112,0 0,-97.61119 -96.21675,0"
         style="line-height:100%;font-family:'文泉驿微米黑';-inkscape-font-specification:'文泉驿微米黑 Bold'"
         id="path3091" />
      <path
         d="m 204.01294,480.65746 c 11.15536,14.87436 20.45165,30.67806 27.88891,47.41115 l -26.49447,12.55001 c -7.43723,-18.59236 -16.26871,-34.86088 -26.49447,-48.8056 l 25.10003,-11.15556 m 89.24452,0 29.28336,5.57778 c -7.43735,21.38176 -17.19846,40.90398 -29.28336,58.56672 l 47.41115,0 0,25.10002 -36.25559,0 0,78.08896 44.62226,0 0,25.10002 -44.62226,0 0,128.289 -27.88891,0 0,-128.289 -52.98894,0 c -4.64836,59.49638 -23.70576,102.25934 -57.17227,128.289 l -16.73335,-22.31113 c 26.95912,-22.31112 42.76282,-57.63704 47.41116,-105.97787 l -46.01671,0 0,-25.10002 47.41115,0 0,-78.08896 -37.65003,0 0,-25.10002 101.79453,0 c 13.94419,-21.38126 24.17012,-42.76274 30.67781,-64.1445 m -16.73335,167.33348 0,-78.08896 -51.59449,0 0,78.08896 51.59449,0 M 67.357261,479.26301 l 26.494467,6.97223 c -1.859342,13.94473 -4.648231,27.42435 -8.366674,40.43892 l 66.933396,0 0,25.10003 c -1.5e-4,1.85947 -2.55663,9.76132 -7.66946,23.70557 -5.11309,13.94464 -11.38809,26.95945 -18.82501,39.04448 l -22.31113,-12.55001 c 9.2962,-15.80353 16.26842,-32.53687 20.91668,-50.20004 l -46.016704,0 C 68.286833,587.10033 56.20165,615.45403 42.257239,636.83537 L 22.735,615.91869 c 19.522207,-36.2554 34.396279,-81.80725 44.622261,-136.65568 m 2.788891,117.13344 27.888913,0 0,164.54458 c 16.733245,-10.22591 32.072135,-20.45184 46.016705,-30.6778 l 5.57778,27.88891 c -18.59272,14.87409 -40.90383,28.35371 -66.933387,40.43893 l -12.550011,-13.94446 0,-188.25016"
         style="line-height:100%;font-family:'文泉驿微米黑';-inkscape-font-specification:'文泉驿微米黑 Bold'"
         id="path3093" />
      <path
         d="m 703.22448,487.62969 0,25.10002 -83.66674,0 -13.94446,34.86114 80.87785,0 0,131.07789 -62.75005,0 0,86.45563 c -2.6e-4,13.94445 -2.32433,23.70556 -6.97223,29.28336 -4.6484,5.57775 -13.47988,8.36664 -26.49447,8.36667 -10.22615,-3e-5 -20.45207,-0.92966 -30.6778,-2.78889 L 554.0188,772.0966 c 11.15536,1.85926 22.31092,2.78889 33.46669,2.78889 3.7183,0 6.27478,-0.92963 7.66945,-2.78889 1.39422,-1.85926 2.09144,-6.50741 2.09167,-13.94446 l 0,-79.4834 -68.32784,0 0,-131.07789 47.41116,0 13.94445,-34.86114 -85.06118,0 0,128.289 c -1.4e-4,55.7779 -14.87421,109.23159 -44.62226,160.36125 l -23.70558,-18.12779 c 26.95919,-41.83335 40.43881,-89.24445 40.43892,-142.23346 l 0,-153.38902 225.9002,0 m -147.81124,112.95009 104.58343,0 0,-27.88891 -104.58343,0 0,27.88891 m 0,52.98894 104.58343,0 0,-29.28336 -104.58343,0 0,29.28336 m -1.39444,41.83337 23.70557,6.97223 c -14.87428,33.46673 -34.3965,59.96117 -58.56672,79.4834 l -20.91668,-16.73335 c 26.02949,-22.3111 44.62208,-45.55184 55.77783,-69.72228 m 107.37231,1.39444 c 20.45156,21.38156 37.18489,43.69266 50.20004,66.9334 l -25.10002,15.3389 c -12.0855,-23.24075 -28.35402,-45.55186 -48.8056,-66.93339 l 23.70558,-15.33891 M 411.78534,486.23524 c 16.73328,13.0151 31.60736,26.49472 44.62226,40.43892 l -20.91669,20.91669 c -13.01488,-16.73311 -27.88895,-32.072 -44.62226,-46.01671 l 20.91669,-15.3389 m -11.15557,83.66674 c 17.66293,11.15575 33.93145,24.17057 48.8056,39.04448 l -19.52224,22.31113 C 415.039,614.5244 399.2353,600.11514 382.50198,588.02977 l 18.12779,-18.12779 m 27.88892,93.42786 22.31113,15.3389 c -10.22601,42.76305 -25.10008,84.13156 -44.62226,124.10566 l -23.70558,-18.12779 c 19.5222,-38.11482 34.86109,-78.55371 46.01671,-121.31677"
         style="line-height:100%;font-family:'文泉驿微米黑';-inkscape-font-specification:'文泉驿微米黑 Bold'"
         id="path3095" />
    </g>
  </g>
</svg>
